<svg id="Capa_1" enable-background="new 0 0 511.993 511.993" height="512" viewBox="0 0 511.993 511.993" width="512" xmlns="http://www.w3.org/2000/svg"><g><g><g><path d="m466.734 163.95v257.216l-210.737 16.63-210.737-16.63v-257.216c0-21.83 17.69-39.509 39.509-39.509h342.455c21.82 0 39.51 17.679 39.51 39.509z" fill="#f4fcff"/><path d="m466.734 404.207v16.959l-210.737 16.631-210.737-16.631v-16.959z" fill="#d9eaf3"/><path d="m265.97 437.01-9.98.79-210.727-16.63v-257.216c0-21.83 17.68-39.509 39.499-39.509h19.96c-21.82 0-39.509 17.679-39.509 39.509v257.216z" fill="#d9eaf3"/><path d="m466.731 421.17h-421.468c-20.856 0-37.763 16.907-37.763 37.763 0 20.856 16.907 37.763 37.763 37.763h421.468c20.856 0 37.763-16.907 37.763-37.763-.001-20.856-16.908-37.763-37.763-37.763z" fill="#f4fcff"/><path d="m498.456 479.406c-6.72 10.4-18.42 17.29-31.73 17.29h-421.463c-10.43 0-19.87-4.23-26.71-11.06-6.83-6.84-11.06-16.28-11.06-26.699 0-20.86 16.91-37.77 37.769-37.77h12.16c-3.81 5.9-6.03 12.93-6.03 20.47 0 10.43 4.23 19.87 11.06 26.71 6.83 6.83 16.27 11.06 26.7 11.06h409.304z" fill="#d9eaf3"/><path d="m75.262 391.171v-227.226c0-5.244 4.266-9.51 9.51-9.51h342.45c5.244 0 9.51 4.266 9.51 9.51v227.225h-361.47z" fill="#9dc6fb"/><path d="m300.384 454.424h-88.774c-18.365 0-33.254-14.888-33.254-33.254h155.281c0 18.366-14.888 33.254-33.253 33.254z" fill="#d9eaf3"/></g><g><circle cx="255.993" cy="112.841" fill="#ffd064" r="97.542"/><path d="m267.718 209.678c-3.847.468-7.764.701-11.728.701-53.867 0-97.539-43.671-97.539-97.539s43.672-97.539 97.539-97.539c3.964 0 7.881.234 11.728.702-48.348 5.788-85.823 46.934-85.823 96.837s37.475 91.05 85.823 96.838z" fill="#ffc250"/></g><path d="m294.764 304.343h-11.821v-71.347h-53.9v71.347h-11.821c-9.921 0-15.236 11.674-8.721 19.156l38.771 44.529c4.609 5.293 12.832 5.293 17.441 0l38.771-44.529c6.516-7.483 1.201-19.156-8.72-19.156z" fill="#e28086"/></g><g><path d="m474.233 414.304v-31.796c0-4.142-3.357-7.5-7.5-7.5s-7.5 3.358-7.5 7.5v31.16h-406.47v-249.72c0-17.65 14.36-32.01 32.011-32.01h67.925c.948 5.14 2.271 10.149 3.939 15h-71.865c-9.38 0-17.011 7.631-17.011 17.01v227.22c0 4.142 3.357 7.5 7.5 7.5h361.471c4.143 0 7.5-3.358 7.5-7.5v-227.22c0-9.379-7.631-17.01-17.01-17.01h-71.875c1.669-4.851 2.991-9.86 3.939-15h67.936c17.65 0 32.01 14.36 32.01 32.01v188.58c0 4.142 3.357 7.5 7.5 7.5s7.5-3.358 7.5-7.5v-188.58c0-25.921-21.089-47.01-47.01-47.01h-66.278c.052-1.361.087-2.727.087-4.1 0-57.919-47.121-105.04-105.04-105.04-21.55 0-42.249 6.474-59.862 18.723-3.4 2.365-4.24 7.039-1.875 10.439 2.364 3.401 7.04 4.241 10.439 1.875 15.087-10.492 32.825-16.038 51.298-16.038 49.648 0 90.04 40.392 90.04 90.04 0 49.654-40.392 90.05-90.04 90.05s-90.04-40.396-90.04-90.05c0-20.137 6.498-39.172 18.79-55.048 2.536-3.275 1.938-7.986-1.338-10.522-3.274-2.536-7.986-1.938-10.521 1.338-14.348 18.528-21.931 40.739-21.931 64.231 0 1.374.035 2.739.087 4.1h-66.266c-25.922 0-47.011 21.089-47.011 47.01v250.355c-21.399 3.587-37.762 22.23-37.762 44.632 0 24.958 20.305 45.263 45.263 45.263h421.467c24.958 0 45.263-20.305 45.263-45.263 0-22.401-16.361-41.043-37.76-44.629zm-218.24-196.416c40.194 0 75.182-22.7 92.836-55.95h78.395c1.108 0 2.01.902 2.01 2.01v219.72h-346.471v-219.72c0-1.108.902-2.01 2.011-2.01h78.384c17.653 33.25 52.641 55.95 92.835 55.95zm69.031 210.782c-3.22 10.553-13.048 18.253-24.641 18.253h-88.774c-11.593 0-21.421-7.7-24.641-18.253zm141.706 60.526h-421.467c-16.687 0-30.263-13.576-30.263-30.263s13.576-30.263 30.263-30.263h126.296c3.532 18.9 20.141 33.253 40.05 33.253h88.774c19.909 0 36.518-14.354 40.05-33.253h126.297c16.687 0 30.263 13.576 30.263 30.263s-13.576 30.263-30.263 30.263z"/><path d="m255.424 146.078c-8.391.062-11.025-.362-17.521-4.611-3.467-2.268-8.113-1.296-10.382 2.17-2.268 3.466-1.296 8.115 2.171 10.382 7.15 4.678 12.192 6.316 18.281 6.839v4.7c0 4.142 3.357 7.5 7.5 7.5s7.5-3.358 7.5-7.5v-5.417c12.514-3.163 20.535-13.848 22.306-24.384 2.277-13.544-5.078-25.786-18.303-30.46-7.718-2.728-16.263-6.03-21.114-9.835-1.789-1.404-2.556-4.381-1.952-7.584.597-3.168 2.739-7.007 6.963-8.279 9.443-2.843 15.714 2.061 16.397 2.629 3.183 2.649 7.912 2.216 10.562-.968 2.649-3.184 2.216-7.913-.969-10.562-1.338-1.113-6.322-4.887-13.891-6.38v-4.193c0-4.142-3.357-7.5-7.5-7.5s-7.5 3.358-7.5 7.5v4.714c-.472.122-.947.253-1.427.398-8.916 2.686-15.574 10.297-17.377 19.864-1.654 8.777 1.195 17.271 7.436 22.165 5.286 4.146 12.637 7.674 25.372 12.176 9.23 3.263 9.026 10.759 8.51 13.831-1.029 6.125-6.182 12.746-15.062 12.805z"/><path d="m241.616 372.952c3.621 4.159 8.86 6.545 14.376 6.545h.001c5.515 0 10.755-2.386 14.377-6.545l38.771-44.529c4.969-5.707 6.107-13.53 2.973-20.416-3.135-6.887-9.783-11.165-17.35-11.165h-4.322v-63.848c0-4.142-3.357-7.5-7.5-7.5h-53.899c-4.143 0-7.5 3.358-7.5 7.5v63.848h-4.321c-7.566 0-14.215 4.278-17.35 11.165-3.135 6.886-1.996 14.709 2.973 20.416zm-28.093-58.73c.326-.715 1.339-2.379 3.698-2.379h11.821c4.143 0 7.5-3.358 7.5-7.5v-63.848h38.899v63.848c0 4.142 3.357 7.5 7.5 7.5h11.822c2.359 0 3.372 1.664 3.698 2.379.325.716.915 2.572-.634 4.352l-38.771 44.528c-1.057 1.214-2.374 1.396-3.064 1.396h-.001c-.69 0-2.007-.182-3.063-1.395l-38.771-44.529c-1.549-1.78-.959-3.636-.634-4.352z"/></g></g></svg>