<svg id="Capa_1" enable-background="new 0 0 512 512" height="512" viewBox="0 0 512 512" width="512" xmlns="http://www.w3.org/2000/svg" xmlns:xlink="http://www.w3.org/1999/xlink"><linearGradient id="SVGID_1_" gradientUnits="userSpaceOnUse" x1="256" x2="256" y1="512" y2="0"><stop offset="0" stop-color="#5558ff"/><stop offset="1" stop-color="#00c0ff"/></linearGradient><linearGradient id="SVGID_2_" gradientUnits="userSpaceOnUse" x1="256" x2="256" y1="421" y2="61"><stop offset="0" stop-color="#addcff"/><stop offset=".5028" stop-color="#eaf6ff"/><stop offset="1" stop-color="#eaf6ff"/></linearGradient><g><g><g><path d="m497 0h-482c-8.291 0-15 6.709-15 15v452c0 8.291 6.709 15 15 15h15v15c0 8.291 6.709 15 15 15h61c8.291 0 15-6.709 15-15v-15h270v15c0 8.291 6.709 15 15 15h61c8.291 0 15-6.709 15-15v-15h15c8.291 0 15-6.709 15-15v-452c0-8.291-6.709-15-15-15z" fill="url(#SVGID_1_)"/></g></g><g><g><path d="m436 61h-360c-8.291 0-15 6.709-15 15v330c0 8.291 6.709 15 15 15h360c8.291 0 15-6.709 15-15v-330c0-8.291-6.709-15-15-15zm-180 300c-57.694 0-105-46.941-105-105 0-57.891 47.109-105 105-105s105 47.109 105 105c0 57.695-46.937 105-105 105zm-45-105c0-19.53 12.578-36.024 30-42.237v-31.245c-34.199 6.969-60 37.266-60 73.482 0 15.264 4.636 29.443 12.497 41.303l22.013-22.022c-2.807-5.867-4.51-12.354-4.51-19.281zm45 15c8.262 0 15-6.724 15-15s-6.738-15-15-15-15 6.724-15 15 6.738 15 15 15zm0 30c-6.925 0-13.411-1.703-19.277-4.508l-22.011 22.018c11.854 7.856 26.026 12.49 41.288 12.49s29.434-4.634 41.288-12.49l-22.011-22.018c-5.866 2.805-12.352 4.508-19.277 4.508zm15-118.482v31.245c17.422 6.212 30 22.707 30 42.237 0 6.927-1.703 13.414-4.51 19.281l22.013 22.022c7.861-11.86 12.497-26.039 12.497-41.303 0-36.216-25.801-66.513-60-73.482z" fill="url(#SVGID_2_)"/></g></g></g></svg>